<svg xmlns="http://www.w3.org/2000/svg" xmlns:xlink="http://www.w3.org/1999/xlink" width="128" zoomAndPan="magnify" viewBox="0 0 96 95.999999" height="128" preserveAspectRatio="xMidYMid meet" version="1.0"><defs><clipPath id="8987b6716a"><path d="M 7.554688 6.570312 L 88.554688 6.570312 L 88.554688 89.070312 L 7.554688 89.070312 Z M 7.554688 6.570312 " clip-rule="nonzero"/></clipPath></defs><g clip-path="url(#8987b6716a)"><path fill="#000000" d="M 16.183594 60.917969 C 16.628906 61.890625 16.199219 63.03125 15.226562 63.472656 C 14.257812 63.917969 13.105469 63.488281 12.660156 62.523438 C 11.484375 59.972656 10.578125 57.289062 9.96875 54.507812 C 9.375 51.792969 9.058594 48.972656 9.058594 46.089844 C 9.058594 35.179688 13.507812 25.296875 20.699219 18.152344 C 27.890625 11 37.824219 6.578125 48.796875 6.578125 C 50.109375 6.578125 51.441406 6.648438 52.796875 6.785156 C 54.132812 6.914062 55.453125 7.117188 56.753906 7.382812 C 57.804688 7.59375 58.480469 8.613281 58.265625 9.652344 C 58.097656 10.480469 57.417969 11.070312 56.625 11.179688 C 50.792969 11.964844 45.632812 14.859375 41.945312 19.0625 C 38.3125 23.207031 36.113281 28.632812 36.113281 34.574219 C 36.113281 41.09375 38.773438 46.996094 43.066406 51.265625 C 47.363281 55.539062 53.300781 58.183594 59.855469 58.183594 C 66.035156 58.183594 71.65625 55.84375 75.875 52.011719 C 80.132812 48.136719 82.972656 42.746094 83.511719 36.695312 C 83.605469 35.636719 84.542969 34.851562 85.609375 34.945312 C 86.457031 35.019531 87.125 35.621094 87.320312 36.398438 C 87.722656 37.96875 88.027344 39.574219 88.230469 41.199219 C 88.429688 42.808594 88.535156 44.4375 88.535156 46.089844 C 88.535156 56.996094 84.089844 66.878906 76.898438 74.027344 C 69.703125 81.175781 59.769531 85.597656 48.800781 85.597656 C 46.734375 85.597656 44.671875 85.4375 42.628906 85.117188 C 40.566406 84.796875 38.558594 84.320312 36.628906 83.703125 C 35.609375 83.378906 35.046875 82.296875 35.375 81.28125 C 35.703125 80.269531 36.792969 79.710938 37.8125 80.035156 C 39.570312 80.59375 41.378906 81.03125 43.21875 81.3125 C 45.003906 81.589844 46.867188 81.730469 48.796875 81.730469 C 58.695312 81.730469 67.660156 77.742188 74.144531 71.292969 C 80.492188 64.980469 84.472656 56.3125 84.640625 46.714844 C 83.109375 49.796875 81.011719 52.554688 78.484375 54.851562 C 73.570312 59.320312 67.027344 62.046875 59.855469 62.046875 C 52.226562 62.046875 45.316406 58.972656 40.316406 54 C 35.316406 49.027344 32.222656 42.160156 32.222656 34.570312 C 32.222656 27.667969 34.789062 21.355469 39.03125 16.519531 C 41.144531 14.109375 43.675781 12.070312 46.511719 10.511719 C 37.523438 11.074219 29.433594 14.929688 23.449219 20.878906 C 16.960938 27.328125 12.949219 36.242188 12.949219 46.085938 C 12.949219 48.703125 13.230469 51.246094 13.765625 53.691406 C 14.320312 56.222656 15.132812 58.640625 16.179688 60.914062 Z M 23.234375 57.683594 L 23.574219 57.683594 C 24.644531 57.683594 25.515625 58.550781 25.515625 59.617188 C 25.515625 62.828125 26.832031 65.746094 28.960938 67.855469 C 31.085938 69.96875 34.015625 71.28125 37.246094 71.28125 C 38.320312 71.28125 39.191406 72.148438 39.191406 73.214844 L 39.191406 73.550781 C 39.191406 74.621094 38.320312 75.484375 37.246094 75.484375 C 34.015625 75.484375 31.085938 76.792969 28.960938 78.90625 C 26.835938 81.019531 25.515625 83.933594 25.515625 87.144531 C 25.515625 88.210938 24.644531 89.078125 23.574219 89.078125 L 23.234375 89.078125 C 22.160156 89.078125 21.289062 88.210938 21.289062 87.144531 C 21.289062 83.933594 19.972656 81.019531 17.847656 78.90625 C 15.722656 76.792969 12.792969 75.484375 9.5625 75.484375 C 8.488281 75.484375 7.617188 74.621094 7.617188 73.550781 L 7.617188 73.214844 C 7.617188 72.148438 8.488281 71.28125 9.5625 71.28125 C 12.792969 71.28125 15.722656 69.972656 17.847656 67.855469 C 19.972656 65.746094 21.289062 62.828125 21.289062 59.617188 C 21.289062 58.550781 22.160156 57.683594 23.234375 57.683594 Z M 62.429688 14.890625 L 62.730469 14.890625 C 63.804688 14.890625 64.675781 15.753906 64.675781 16.824219 C 64.675781 19.601562 65.816406 22.128906 67.660156 23.957031 C 69.496094 25.789062 72.039062 26.925781 74.835938 26.925781 C 75.910156 26.925781 76.78125 27.789062 76.78125 28.859375 L 76.78125 29.15625 C 76.78125 30.226562 75.910156 31.089844 74.835938 31.089844 C 72.039062 31.089844 69.496094 32.226562 67.660156 34.058594 C 65.816406 35.886719 64.675781 38.414062 64.675781 41.191406 C 64.675781 42.261719 63.804688 43.125 62.730469 43.125 L 62.429688 43.125 C 61.355469 43.125 60.484375 42.261719 60.484375 41.191406 C 60.484375 38.414062 59.34375 35.886719 57.503906 34.058594 C 55.664062 32.226562 53.121094 31.089844 50.328125 31.089844 C 49.253906 31.089844 48.382812 30.226562 48.382812 29.15625 L 48.382812 28.859375 C 48.382812 27.789062 49.253906 26.925781 50.328125 26.925781 C 53.121094 26.925781 55.664062 25.789062 57.503906 23.957031 C 59.34375 22.128906 60.484375 19.601562 60.484375 16.824219 C 60.484375 15.753906 61.355469 14.890625 62.429688 14.890625 Z M 62.429688 14.890625 " fill-opacity="1" fill-rule="evenodd"/></g></svg>