<svg xmlns="http://www.w3.org/2000/svg" xmlns:xlink="http://www.w3.org/1999/xlink" width="128" zoomAndPan="magnify" viewBox="0 0 96 95.999999" height="128" preserveAspectRatio="xMidYMid meet" version="1.0"><defs><g/><clipPath id="5d5624d981"><path d="M 5.113281 3 L 90.613281 3 L 90.613281 92.855469 L 5.113281 92.855469 Z M 5.113281 3 " clip-rule="nonzero"/></clipPath><clipPath id="024f087ab3"><path d="M 16 3 L 19 3 L 19 7.359375 L 16 7.359375 Z M 16 3 " clip-rule="nonzero"/></clipPath><clipPath id="36461f3e61"><rect x="0" width="20" y="0" height="8"/></clipPath></defs><g clip-path="url(#5d5624d981)"><path fill="#000000" d="M 41.394531 3.554688 C 39.273438 3.554688 37.460938 5.054688 37.050781 7.136719 L 35.570312 14.730469 C 31.9375 16.105469 28.574219 18.027344 25.621094 20.453125 L 18.335938 17.941406 C 16.328125 17.25 14.121094 18.082031 13.058594 19.914062 L 6.378906 31.492188 C 5.320312 33.332031 5.707031 35.664062 7.304688 37.054688 L 13.144531 42.136719 C 12.839844 44.003906 12.644531 45.902344 12.644531 47.855469 C 12.644531 49.808594 12.839844 51.707031 13.144531 53.574219 L 7.304688 58.652344 C 5.707031 60.042969 5.320312 62.378906 6.378906 64.21875 L 13.058594 75.792969 C 14.117188 77.632812 16.328125 78.460938 18.335938 77.777344 L 25.621094 75.265625 C 28.574219 77.6875 31.9375 79.601562 35.570312 80.976562 L 37.050781 88.574219 C 37.460938 90.65625 39.273438 92.15625 41.394531 92.15625 L 54.773438 92.15625 C 56.894531 92.15625 58.707031 90.65625 59.117188 88.574219 L 60.59375 80.976562 C 64.230469 79.601562 67.59375 77.679688 70.546875 75.257812 L 77.832031 77.765625 C 79.835938 78.457031 82.046875 77.632812 83.109375 75.792969 L 89.789062 64.207031 C 90.847656 62.371094 90.460938 60.042969 88.863281 58.652344 L 83.023438 53.574219 C 83.324219 51.707031 83.523438 49.808594 83.523438 47.855469 C 83.523438 45.902344 83.324219 44.003906 83.023438 42.136719 L 88.863281 37.054688 C 90.460938 35.664062 90.847656 33.332031 89.789062 31.492188 L 83.109375 19.914062 C 82.050781 18.078125 79.835938 17.246094 77.832031 17.933594 L 70.546875 20.441406 C 67.59375 18.019531 64.230469 16.105469 60.59375 14.730469 L 59.117188 7.136719 C 58.707031 5.054688 56.894531 3.554688 54.773438 3.554688 Z M 48.082031 30.132812 C 57.871094 30.132812 65.804688 38.070312 65.804688 47.855469 C 65.804688 57.640625 57.871094 65.574219 48.082031 65.574219 C 38.296875 65.574219 30.363281 57.640625 30.363281 47.855469 C 30.363281 38.070312 38.296875 30.132812 48.082031 30.132812 Z M 48.082031 30.132812 " fill-opacity="1" fill-rule="nonzero"/></g><g transform="matrix(1, 0, 0, 1, 38, 8)"><g clip-path="url(#36461f3e61)"><g fill="#000000" fill-opacity="1"><g transform="translate(0.929356, 6.100003)"><g><path d="M 2.546875 -3.5 L 2.953125 -3.5 L 2.953125 0 L 2.546875 0 L 2.546875 -1.546875 L 0.703125 -1.546875 L 0.703125 0 L 0.296875 0 L 0.296875 -3.5 L 0.703125 -3.5 L 0.703125 -1.890625 L 2.546875 -1.890625 Z M 2.546875 -3.5 "/></g></g></g><g fill="#000000" fill-opacity="1"><g transform="translate(4.174381, 6.100003)"><g><path d="M 2.53125 -1.28125 C 2.53125 -1.257812 2.53125 -1.238281 2.53125 -1.21875 C 2.53125 -1.195312 2.53125 -1.175781 2.53125 -1.15625 L 0.5625 -1.15625 C 0.582031 -0.84375 0.664062 -0.617188 0.8125 -0.484375 C 0.96875 -0.347656 1.164062 -0.28125 1.40625 -0.28125 C 1.5625 -0.28125 1.691406 -0.300781 1.796875 -0.34375 C 1.898438 -0.394531 1.992188 -0.472656 2.078125 -0.578125 L 2.4375 -0.578125 C 2.34375 -0.367188 2.207031 -0.210938 2.03125 -0.109375 C 1.851562 -0.015625 1.632812 0.03125 1.375 0.03125 C 1.164062 0.03125 0.96875 -0.015625 0.78125 -0.109375 C 0.59375 -0.203125 0.441406 -0.347656 0.328125 -0.546875 C 0.222656 -0.742188 0.171875 -0.992188 0.171875 -1.296875 C 0.171875 -1.597656 0.226562 -1.847656 0.34375 -2.046875 C 0.457031 -2.242188 0.601562 -2.390625 0.78125 -2.484375 C 0.96875 -2.578125 1.164062 -2.625 1.375 -2.625 C 1.582031 -2.625 1.773438 -2.578125 1.953125 -2.484375 C 2.128906 -2.390625 2.269531 -2.242188 2.375 -2.046875 C 2.476562 -1.847656 2.53125 -1.59375 2.53125 -1.28125 Z M 0.5625 -1.4375 L 2.15625 -1.4375 C 2.144531 -1.71875 2.066406 -1.929688 1.921875 -2.078125 C 1.785156 -2.234375 1.601562 -2.3125 1.375 -2.3125 C 1.15625 -2.3125 0.96875 -2.238281 0.8125 -2.09375 C 0.664062 -1.945312 0.582031 -1.726562 0.5625 -1.4375 Z M 0.5625 -1.4375 "/></g></g></g><g fill="#000000" fill-opacity="1"><g transform="translate(6.869402, 6.100003)"><g><path d="M 2.375 -0.453125 C 2.375 -0.378906 2.382812 -0.328125 2.40625 -0.296875 C 2.4375 -0.265625 2.488281 -0.25 2.5625 -0.25 L 2.5625 -0.015625 C 2.519531 0.00390625 2.460938 0.015625 2.390625 0.015625 C 2.265625 0.015625 2.164062 -0.0078125 2.09375 -0.0625 C 2.03125 -0.125 2 -0.21875 2 -0.34375 L 2 -0.53125 C 1.988281 -0.5 1.957031 -0.453125 1.90625 -0.390625 C 1.863281 -0.328125 1.800781 -0.257812 1.71875 -0.1875 C 1.644531 -0.125 1.546875 -0.0703125 1.421875 -0.03125 C 1.304688 0.0078125 1.171875 0.03125 1.015625 0.03125 C 0.773438 0.03125 0.570312 -0.03125 0.40625 -0.15625 C 0.25 -0.289062 0.171875 -0.484375 0.171875 -0.734375 C 0.171875 -0.960938 0.242188 -1.132812 0.390625 -1.25 C 0.546875 -1.375 0.773438 -1.457031 1.078125 -1.5 C 1.179688 -1.519531 1.289062 -1.535156 1.40625 -1.546875 C 1.519531 -1.566406 1.625 -1.585938 1.71875 -1.609375 C 1.820312 -1.640625 1.90625 -1.664062 1.96875 -1.6875 L 1.96875 -1.734375 C 1.96875 -1.953125 1.914062 -2.101562 1.8125 -2.1875 C 1.707031 -2.269531 1.550781 -2.3125 1.34375 -2.3125 C 1.144531 -2.3125 0.992188 -2.28125 0.890625 -2.21875 C 0.785156 -2.15625 0.722656 -2.0625 0.703125 -1.9375 L 0.328125 -1.9375 C 0.347656 -2.164062 0.445312 -2.335938 0.625 -2.453125 C 0.800781 -2.566406 1.039062 -2.625 1.34375 -2.625 C 1.6875 -2.625 1.941406 -2.546875 2.109375 -2.390625 C 2.285156 -2.242188 2.375 -1.992188 2.375 -1.640625 Z M 1.96875 -0.828125 L 1.96875 -1.4375 C 1.894531 -1.394531 1.78125 -1.359375 1.625 -1.328125 C 1.46875 -1.304688 1.300781 -1.28125 1.125 -1.25 C 0.914062 -1.207031 0.769531 -1.144531 0.6875 -1.0625 C 0.601562 -0.988281 0.5625 -0.882812 0.5625 -0.75 C 0.5625 -0.601562 0.609375 -0.484375 0.703125 -0.390625 C 0.796875 -0.304688 0.929688 -0.265625 1.109375 -0.265625 C 1.242188 -0.265625 1.359375 -0.285156 1.453125 -0.328125 C 1.554688 -0.378906 1.640625 -0.4375 1.703125 -0.5 C 1.773438 -0.5625 1.832031 -0.625 1.875 -0.6875 C 1.914062 -0.75 1.945312 -0.796875 1.96875 -0.828125 Z M 1.96875 -0.828125 "/></g></g></g><g fill="#000000" fill-opacity="1"><g transform="translate(9.519422, 6.100003)"><g><path d="M 1.3125 -2.625 C 1.507812 -2.625 1.6875 -2.578125 1.84375 -2.484375 C 2 -2.390625 2.113281 -2.265625 2.1875 -2.109375 L 2.1875 -3.53125 L 2.59375 -3.53125 L 2.59375 0 L 2.1875 0 L 2.1875 -0.53125 C 2.125 -0.375 2.019531 -0.238281 1.875 -0.125 C 1.726562 -0.0195312 1.546875 0.03125 1.328125 0.03125 C 1.179688 0.03125 1.039062 0.00390625 0.90625 -0.046875 C 0.769531 -0.0976562 0.644531 -0.175781 0.53125 -0.28125 C 0.414062 -0.382812 0.328125 -0.519531 0.265625 -0.6875 C 0.203125 -0.863281 0.171875 -1.066406 0.171875 -1.296875 C 0.171875 -1.523438 0.203125 -1.722656 0.265625 -1.890625 C 0.328125 -2.054688 0.414062 -2.191406 0.53125 -2.296875 C 0.644531 -2.410156 0.769531 -2.492188 0.90625 -2.546875 C 1.039062 -2.597656 1.175781 -2.625 1.3125 -2.625 Z M 1.390625 -0.296875 C 1.523438 -0.296875 1.65625 -0.332031 1.78125 -0.40625 C 1.90625 -0.476562 2.003906 -0.585938 2.078125 -0.734375 C 2.160156 -0.890625 2.203125 -1.078125 2.203125 -1.296875 C 2.203125 -1.535156 2.160156 -1.722656 2.078125 -1.859375 C 2.003906 -2.003906 1.90625 -2.113281 1.78125 -2.1875 C 1.65625 -2.257812 1.523438 -2.296875 1.390625 -2.296875 C 1.242188 -2.296875 1.109375 -2.257812 0.984375 -2.1875 C 0.859375 -2.113281 0.753906 -2.003906 0.671875 -1.859375 C 0.597656 -1.710938 0.5625 -1.523438 0.5625 -1.296875 C 0.5625 -1.066406 0.597656 -0.878906 0.671875 -0.734375 C 0.753906 -0.585938 0.859375 -0.476562 0.984375 -0.40625 C 1.109375 -0.332031 1.242188 -0.296875 1.390625 -0.296875 Z M 1.390625 -0.296875 "/></g></g></g><g fill="#000000" fill-opacity="1"><g transform="translate(12.399444, 6.100003)"><g><path d="M 0.296875 -3.546875 L 0.6875 -3.546875 L 0.6875 -3.171875 L 0.296875 -3.171875 Z M 0.296875 -2.59375 L 0.6875 -2.59375 L 0.6875 0 L 0.296875 0 Z M 0.296875 -2.59375 "/></g></g></g><g fill="#000000" fill-opacity="1"><g transform="translate(13.374449, 6.100003)"><g><path d="M 1.609375 -2.625 C 1.785156 -2.625 1.941406 -2.59375 2.078125 -2.53125 C 2.222656 -2.46875 2.335938 -2.359375 2.421875 -2.203125 C 2.503906 -2.046875 2.546875 -1.835938 2.546875 -1.578125 L 2.546875 0 L 2.140625 0 L 2.140625 -1.5625 C 2.140625 -1.832031 2.078125 -2.019531 1.953125 -2.125 C 1.835938 -2.226562 1.679688 -2.28125 1.484375 -2.28125 C 1.316406 -2.28125 1.175781 -2.238281 1.0625 -2.15625 C 0.957031 -2.082031 0.875 -1.992188 0.8125 -1.890625 C 0.75 -1.785156 0.707031 -1.691406 0.6875 -1.609375 L 0.6875 0 L 0.296875 0 L 0.296875 -2.59375 L 0.6875 -2.59375 L 0.6875 -2 C 0.695312 -2.039062 0.722656 -2.097656 0.765625 -2.171875 C 0.816406 -2.242188 0.878906 -2.3125 0.953125 -2.375 C 1.035156 -2.445312 1.128906 -2.503906 1.234375 -2.546875 C 1.347656 -2.597656 1.472656 -2.625 1.609375 -2.625 Z M 1.609375 -2.625 "/></g></g></g><g clip-path="url(#024f087ab3)"><g fill="#000000" fill-opacity="1"><g transform="translate(16.199469, 6.100003)"><g><path d="M 2.1875 -2.609375 L 2.578125 -2.609375 L 2.578125 -0.015625 C 2.578125 0.210938 2.539062 0.398438 2.46875 0.546875 C 2.394531 0.691406 2.300781 0.800781 2.1875 0.875 C 2.070312 0.957031 1.941406 1.015625 1.796875 1.046875 C 1.660156 1.078125 1.523438 1.09375 1.390625 1.09375 C 1.148438 1.09375 0.929688 1.046875 0.734375 0.953125 C 0.535156 0.867188 0.394531 0.75 0.3125 0.59375 L 0.578125 0.4375 C 0.648438 0.53125 0.75 0.609375 0.875 0.671875 C 1.007812 0.734375 1.171875 0.765625 1.359375 0.765625 C 1.609375 0.765625 1.804688 0.703125 1.953125 0.578125 C 2.109375 0.460938 2.1875 0.265625 2.1875 -0.015625 L 2.1875 -0.53125 C 2.125 -0.375 2.019531 -0.238281 1.875 -0.125 C 1.726562 -0.0195312 1.539062 0.03125 1.3125 0.03125 C 1.175781 0.03125 1.039062 0.00390625 0.90625 -0.046875 C 0.769531 -0.0976562 0.644531 -0.175781 0.53125 -0.28125 C 0.414062 -0.394531 0.328125 -0.535156 0.265625 -0.703125 C 0.203125 -0.867188 0.171875 -1.066406 0.171875 -1.296875 C 0.171875 -1.523438 0.203125 -1.722656 0.265625 -1.890625 C 0.328125 -2.054688 0.414062 -2.191406 0.53125 -2.296875 C 0.644531 -2.410156 0.769531 -2.492188 0.90625 -2.546875 C 1.039062 -2.597656 1.175781 -2.625 1.3125 -2.625 C 1.507812 -2.625 1.679688 -2.578125 1.828125 -2.484375 C 1.984375 -2.390625 2.101562 -2.265625 2.1875 -2.109375 Z M 1.390625 -0.3125 C 1.523438 -0.3125 1.65625 -0.34375 1.78125 -0.40625 C 1.90625 -0.476562 2.003906 -0.585938 2.078125 -0.734375 C 2.160156 -0.890625 2.203125 -1.078125 2.203125 -1.296875 C 2.203125 -1.535156 2.160156 -1.722656 2.078125 -1.859375 C 2.003906 -2.003906 1.90625 -2.113281 1.78125 -2.1875 C 1.65625 -2.257812 1.523438 -2.296875 1.390625 -2.296875 C 1.242188 -2.296875 1.109375 -2.257812 0.984375 -2.1875 C 0.859375 -2.113281 0.753906 -2.003906 0.671875 -1.859375 C 0.597656 -1.710938 0.5625 -1.523438 0.5625 -1.296875 C 0.5625 -1.066406 0.597656 -0.878906 0.671875 -0.734375 C 0.753906 -0.585938 0.859375 -0.476562 0.984375 -0.40625 C 1.109375 -0.34375 1.242188 -0.3125 1.390625 -0.3125 Z M 1.390625 -0.3125 "/></g></g></g></g></g></g></svg>