<svg xmlns="http://www.w3.org/2000/svg" xmlns:xlink="http://www.w3.org/1999/xlink" width="128" zoomAndPan="magnify" viewBox="0 0 96 95.999999" height="128" preserveAspectRatio="xMidYMid meet" version="1.0"><defs><g/><clipPath id="b62ebead60"><path d="M 46 6.734375 L 50 6.734375 L 50 19 L 46 19 Z M 46 6.734375 " clip-rule="nonzero"/></clipPath><clipPath id="12326703b2"><path d="M 46 77 L 50 77 L 50 89.234375 L 46 89.234375 Z M 46 77 " clip-rule="nonzero"/></clipPath><clipPath id="5b5b20604e"><path d="M 6.734375 46 L 19 46 L 19 50 L 6.734375 50 Z M 6.734375 46 " clip-rule="nonzero"/></clipPath><clipPath id="f3baada202"><path d="M 77 46 L 89.234375 46 L 89.234375 50 L 77 50 Z M 77 46 " clip-rule="nonzero"/></clipPath><clipPath id="50731a41be"><path d="M 0.0390625 2 L 1.960938 2 L 1.960938 5 L 0.0390625 5 Z M 0.0390625 2 " clip-rule="nonzero"/></clipPath><clipPath id="48eecf531a"><rect x="0" width="2" y="0" height="5"/></clipPath></defs><g clip-path="url(#b62ebead60)"><path fill="#ffffff" d="M 46.15625 8.570312 C 46.15625 8.082031 46.351562 7.613281 46.695312 7.269531 C 47.039062 6.925781 47.507812 6.734375 47.996094 6.734375 C 48.480469 6.734375 48.949219 6.925781 49.292969 7.269531 C 49.636719 7.613281 49.832031 8.082031 49.832031 8.570312 L 49.832031 16.605469 C 49.832031 17.09375 49.636719 17.5625 49.292969 17.90625 C 48.949219 18.25 48.480469 18.445312 47.996094 18.445312 C 47.507812 18.445312 47.039062 18.25 46.695312 17.90625 C 46.351562 17.5625 46.15625 17.09375 46.15625 16.605469 Z M 46.15625 8.570312 " fill-opacity="1" fill-rule="nonzero"/></g><g clip-path="url(#12326703b2)"><path fill="#ffffff" d="M 46.15625 79.382812 C 46.15625 78.894531 46.351562 78.425781 46.695312 78.082031 C 47.039062 77.738281 47.507812 77.542969 47.996094 77.542969 C 48.480469 77.542969 48.949219 77.738281 49.292969 78.082031 C 49.636719 78.425781 49.832031 78.894531 49.832031 79.382812 L 49.832031 87.417969 C 49.832031 87.90625 49.636719 88.375 49.292969 88.71875 C 48.949219 89.0625 48.480469 89.257812 47.996094 89.257812 C 47.507812 89.257812 47.039062 89.0625 46.695312 88.71875 C 46.351562 88.375 46.15625 87.90625 46.15625 87.417969 Z M 46.15625 79.382812 " fill-opacity="1" fill-rule="nonzero"/></g><g clip-path="url(#5b5b20604e)"><path fill="#ffffff" d="M 8.570312 49.832031 C 8.082031 49.832031 7.613281 49.636719 7.269531 49.292969 C 6.925781 48.949219 6.734375 48.480469 6.734375 47.996094 C 6.734375 47.507812 6.925781 47.039062 7.269531 46.695312 C 7.613281 46.351562 8.082031 46.15625 8.570312 46.15625 L 16.605469 46.15625 C 17.09375 46.15625 17.5625 46.351562 17.90625 46.695312 C 18.25 47.039062 18.445312 47.507812 18.445312 47.996094 C 18.445312 48.480469 18.25 48.949219 17.90625 49.292969 C 17.5625 49.636719 17.09375 49.832031 16.605469 49.832031 Z M 8.570312 49.832031 " fill-opacity="1" fill-rule="nonzero"/></g><g clip-path="url(#f3baada202)"><path fill="#ffffff" d="M 79.382812 49.832031 C 78.894531 49.832031 78.425781 49.636719 78.082031 49.292969 C 77.738281 48.949219 77.542969 48.480469 77.542969 47.996094 C 77.542969 47.507812 77.738281 47.039062 78.082031 46.695312 C 78.425781 46.351562 78.894531 46.15625 79.382812 46.15625 L 87.417969 46.15625 C 87.90625 46.15625 88.375 46.351562 88.71875 46.695312 C 89.0625 47.039062 89.257812 47.507812 89.257812 47.996094 C 89.257812 48.480469 89.0625 48.949219 88.71875 49.292969 C 88.375 49.636719 87.90625 49.832031 87.417969 49.832031 Z M 79.382812 49.832031 " fill-opacity="1" fill-rule="nonzero"/></g><path fill="#ffffff" d="M 18.816406 21.417969 C 18.472656 21.070312 18.277344 20.605469 18.277344 20.117188 C 18.277344 19.628906 18.472656 19.164062 18.816406 18.816406 C 19.164062 18.472656 19.628906 18.277344 20.117188 18.277344 C 20.605469 18.277344 21.070312 18.472656 21.417969 18.816406 L 27.097656 24.5 C 27.445312 24.84375 27.636719 25.3125 27.636719 25.800781 C 27.636719 26.289062 27.445312 26.753906 27.097656 27.097656 C 26.753906 27.445312 26.289062 27.636719 25.800781 27.636719 C 25.3125 27.636719 24.84375 27.445312 24.5 27.097656 Z M 18.816406 21.417969 " fill-opacity="1" fill-rule="nonzero"/><path fill="#ffffff" d="M 68.890625 71.488281 C 68.542969 71.144531 68.351562 70.675781 68.351562 70.1875 C 68.351562 69.699219 68.542969 69.234375 68.890625 68.890625 C 69.234375 68.542969 69.699219 68.351562 70.1875 68.351562 C 70.675781 68.351562 71.144531 68.542969 71.488281 68.890625 L 77.171875 74.570312 C 77.515625 74.917969 77.710938 75.382812 77.710938 75.871094 C 77.710938 76.359375 77.515625 76.824219 77.171875 77.171875 C 76.824219 77.515625 76.359375 77.710938 75.871094 77.710938 C 75.382812 77.710938 74.917969 77.515625 74.570312 77.171875 Z M 68.890625 71.488281 " fill-opacity="1" fill-rule="nonzero"/><path fill="#ffffff" d="M 21.417969 77.171875 C 21.070312 77.515625 20.605469 77.710938 20.117188 77.710938 C 19.628906 77.710938 19.164062 77.515625 18.816406 77.171875 C 18.472656 76.824219 18.277344 76.359375 18.277344 75.871094 C 18.277344 75.382812 18.472656 74.917969 18.816406 74.570312 L 24.5 68.890625 C 24.84375 68.542969 25.3125 68.351562 25.800781 68.351562 C 26.289062 68.351562 26.753906 68.542969 27.097656 68.890625 C 27.445312 69.234375 27.636719 69.699219 27.636719 70.1875 C 27.636719 70.675781 27.445312 71.144531 27.097656 71.488281 Z M 21.417969 77.171875 " fill-opacity="1" fill-rule="nonzero"/><path fill="#ffffff" d="M 77.171875 21.417969 L 71.488281 27.097656 C 71.144531 27.445312 70.675781 27.636719 70.1875 27.636719 C 69.699219 27.636719 69.234375 27.445312 68.890625 27.097656 C 68.542969 26.753906 68.351562 26.289062 68.351562 25.800781 C 68.351562 25.3125 68.542969 24.84375 68.890625 24.5 L 74.570312 18.816406 C 74.917969 18.472656 75.382812 18.277344 75.871094 18.277344 C 76.359375 18.277344 76.824219 18.472656 77.171875 18.816406 C 77.515625 19.164062 77.710938 19.628906 77.710938 20.117188 C 77.710938 20.605469 77.515625 21.070312 77.171875 21.417969 Z M 77.171875 21.417969 " fill-opacity="1" fill-rule="nonzero"/><path fill="#ffffff" d="M 23.773438 47.996094 C 23.769531 44.757812 24.417969 41.550781 25.675781 38.570312 C 26.894531 35.691406 28.660156 33.078125 30.871094 30.871094 C 33.078125 28.660156 35.691406 26.894531 38.570312 25.679688 C 41.550781 24.417969 44.757812 23.769531 47.996094 23.773438 C 51.230469 23.769531 54.4375 24.417969 57.417969 25.679688 C 60.296875 26.894531 62.910156 28.660156 65.117188 30.871094 C 67.328125 33.078125 69.09375 35.691406 70.3125 38.570312 C 71.570312 41.550781 72.21875 44.757812 72.214844 47.996094 C 72.21875 51.230469 71.570312 54.4375 70.3125 57.417969 C 69.09375 60.296875 67.328125 62.910156 65.117188 65.117188 C 62.910156 67.328125 60.296875 69.09375 57.417969 70.3125 C 54.4375 71.570312 51.230469 72.21875 47.996094 72.214844 C 44.757812 72.21875 41.550781 71.570312 38.570312 70.3125 C 35.691406 69.09375 33.078125 67.328125 30.871094 65.117188 C 28.660156 62.910156 26.894531 60.296875 25.679688 57.417969 C 24.417969 54.4375 23.769531 51.230469 23.773438 47.996094 Z M 27.445312 47.996094 C 27.445312 45.246094 27.992188 42.53125 29.0625 40 C 30.097656 37.558594 31.59375 35.339844 33.46875 33.46875 C 35.339844 31.59375 37.558594 30.097656 40 29.0625 C 42.53125 27.992188 45.246094 27.445312 47.996094 27.445312 C 50.742188 27.445312 53.457031 27.992188 55.988281 29.0625 C 58.429688 30.097656 60.648438 31.59375 62.519531 33.46875 C 64.394531 35.339844 65.890625 37.558594 66.925781 40 C 67.996094 42.53125 68.542969 45.246094 68.542969 47.996094 C 68.542969 50.742188 67.996094 53.457031 66.925781 55.988281 C 65.890625 58.429688 64.394531 60.648438 62.519531 62.519531 C 60.648438 64.394531 58.429688 65.890625 55.988281 66.925781 C 53.457031 67.996094 50.742188 68.542969 47.996094 68.542969 C 45.246094 68.542969 42.53125 67.996094 40 66.925781 C 37.558594 65.890625 35.339844 64.394531 33.46875 62.519531 C 31.59375 60.648438 30.097656 58.429688 29.0625 55.988281 C 27.992188 53.457031 27.445312 50.742188 27.445312 47.996094 Z M 27.445312 47.996094 " fill-opacity="1" fill-rule="evenodd"/><g transform="matrix(1, 0, 0, 1, 47, 67)"><g clip-path="url(#48eecf531a)"><g clip-path="url(#50731a41be)"><g fill="#ffffff" fill-opacity="1"><g transform="translate(0.197264, 4.144112)"><g><path d="M 1.421875 -0.265625 C 1.421875 -0.222656 1.425781 -0.191406 1.4375 -0.171875 C 1.457031 -0.160156 1.488281 -0.15625 1.53125 -0.15625 L 1.53125 0 C 1.507812 0.0078125 1.476562 0.015625 1.4375 0.015625 C 1.363281 0.015625 1.304688 0 1.265625 -0.03125 C 1.222656 -0.0703125 1.203125 -0.128906 1.203125 -0.203125 L 1.203125 -0.328125 C 1.191406 -0.304688 1.171875 -0.273438 1.140625 -0.234375 C 1.117188 -0.191406 1.082031 -0.148438 1.03125 -0.109375 C 0.988281 -0.078125 0.929688 -0.046875 0.859375 -0.015625 C 0.785156 0.00390625 0.703125 0.015625 0.609375 0.015625 C 0.460938 0.015625 0.335938 -0.0195312 0.234375 -0.09375 C 0.140625 -0.175781 0.09375 -0.289062 0.09375 -0.4375 C 0.09375 -0.582031 0.140625 -0.6875 0.234375 -0.75 C 0.328125 -0.820312 0.460938 -0.875 0.640625 -0.90625 C 0.703125 -0.914062 0.769531 -0.925781 0.84375 -0.9375 C 0.914062 -0.945312 0.976562 -0.957031 1.03125 -0.96875 C 1.09375 -0.976562 1.144531 -0.992188 1.1875 -1.015625 L 1.1875 -1.03125 C 1.1875 -1.164062 1.148438 -1.257812 1.078125 -1.3125 C 1.015625 -1.363281 0.921875 -1.390625 0.796875 -1.390625 C 0.679688 -1.390625 0.59375 -1.367188 0.53125 -1.328125 C 0.46875 -1.285156 0.429688 -1.226562 0.421875 -1.15625 L 0.1875 -1.15625 C 0.207031 -1.300781 0.269531 -1.40625 0.375 -1.46875 C 0.476562 -1.539062 0.625 -1.578125 0.8125 -1.578125 C 1.019531 -1.578125 1.171875 -1.53125 1.265625 -1.4375 C 1.367188 -1.351562 1.421875 -1.203125 1.421875 -0.984375 Z M 1.1875 -0.5 L 1.1875 -0.859375 C 1.132812 -0.835938 1.0625 -0.816406 0.96875 -0.796875 C 0.875 -0.785156 0.773438 -0.769531 0.671875 -0.75 C 0.546875 -0.726562 0.457031 -0.691406 0.40625 -0.640625 C 0.363281 -0.597656 0.34375 -0.535156 0.34375 -0.453125 C 0.34375 -0.367188 0.367188 -0.296875 0.421875 -0.234375 C 0.472656 -0.179688 0.550781 -0.15625 0.65625 -0.15625 C 0.738281 -0.15625 0.8125 -0.164062 0.875 -0.1875 C 0.9375 -0.21875 0.988281 -0.253906 1.03125 -0.296875 C 1.070312 -0.335938 1.101562 -0.375 1.125 -0.40625 C 1.15625 -0.445312 1.175781 -0.476562 1.1875 -0.5 Z M 1.1875 -0.5 "/></g></g></g></g></g></g></svg>